<svg class="drykissLogo" version="1.1" id="Layer_1" xmlns="http://www.w3.org/2000/svg" xmlns:xlink="http://www.w3.org/1999/xlink" x="0px" y="0px"
	 width="254.667px" height="224.465px" viewBox="0 0 254.667 224.465" enable-background="new 0 0 254.667 224.465" xml:space="preserve">

<rect x="-1.651" y="95.98" fill="none" width="331.201" height="61.655"/>

<text transform="matrix(1 0 0 1 1 126.6523)"       fill="#979797" font-family="'Courier'" font-size="48" letter-spacing="7">DRY</text>
<text transform="matrix(1 0 0 1 115.563 126.6523)" fill="#ED293B" font-family="'Courier'" font-size="48" letter-spacing="7">KISS</text>

<g>
	<rect x="64.315" y="203.331" opacity="0.55" fill="#ED293B" enable-background="new" width="21.136" height="21.137"/>
	<rect x="85.457" y="203.338" opacity="0.75" fill="#ED293B" enable-background="new" width="21.127" height="21.127"/>
	<rect x="106.579" y="203.331" opacity="0.69" fill="#ED293B" enable-background="new" width="21.138" height="21.137"/>
	<rect x="127.713" y="203.331" opacity="0.77" fill="#ED293B" enable-background="new" width="21.137" height="21.137"/>
	<rect x="148.854" y="203.338" opacity="0.67" fill="#ED293B" enable-background="new" width="21.128" height="21.127"/>
	<rect x="169.979" y="203.331" opacity="0.53" fill="#ED293B" enable-background="new" width="21.138" height="21.137"/>
	<rect x="43.182" y="182.145" opacity="0.51" fill="#ED293B" enable-background="new" width="21.137" height="21.142"/>
	<rect x="64.324" y="182.155" opacity="0.85" fill="#ED293B" enable-background="new" width="21.128" height="21.131"/>
	<rect x="85.447" y="182.145" opacity="0.99" fill="#ED293B" enable-background="new" width="21.137" height="21.142"/>
	<rect x="106.579" y="182.145" opacity="0.9" fill="#ED293B" enable-background="new" width="21.138" height="21.142"/>
	<rect x="127.723" y="182.154" opacity="0.9" fill="#ED293B" enable-background="new" width="21.128" height="21.132"/>
	<rect x="148.847" y="182.146" opacity="0.97" fill="#ED293B" enable-background="new" width="21.136" height="21.14"/>
	<rect x="169.988" y="182.146" opacity="0.87" fill="#ED293B" enable-background="new" width="21.129" height="21.131"/>
	<rect x="191.112" y="182.146" opacity="0.49" fill="#ED293B" enable-background="new" width="21.138" height="21.14"/>
	<rect x="22.049" y="161.014" opacity="0.45" fill="#ED293B" enable-background="new" width="21.137" height="21.135"/>
	<rect x="43.191" y="161.023" opacity="0.81" fill="#ED293B" enable-background="new" width="21.128" height="21.125"/>
	<rect x="64.315" y="161.014" opacity="0.81" fill="#ED293B" enable-background="new" width="21.136" height="21.135"/>
	<rect x="85.447" y="161.012" opacity="0.95" fill="#ED293B" enable-background="new" width="21.137" height="21.137"/>
	<rect x="148.873" y="161.004" opacity="0.93" fill="#ED293B" enable-background="new" width="21.127" height="21.129"/>
	<rect x="169.996" y="160.997" opacity="0.91" fill="#ED293B" enable-background="new" width="21.139" height="21.137"/>
	<rect x="191.138" y="160.997" opacity="0.83" fill="#ED293B" enable-background="new" width="21.128" height="21.129"/>
	<rect x="212.261" y="160.997" opacity="0.47" fill="#ED293B" enable-background="new" width="21.139" height="21.137"/>
	<rect x="0.892" y="139.879" opacity="0.43" fill="#ED293B" enable-background="new" width="21.137" height="21.139"/>
	<rect x="22.033" y="139.889" opacity="0.71" fill="#ED293B" enable-background="new" width="21.128" height="21.129"/>
	<rect x="43.157" y="139.879" opacity="0.77" fill="#ED293B" enable-background="new" width="21.138" height="21.139"/>
	<rect x="64.289" y="139.879" opacity="0.89" fill="#ED293B" enable-background="new" width="21.138" height="21.139"/>
	<rect x="170.003" y="139.874" opacity="0.91" fill="#ED293B" enable-background="new" width="21.131" height="21.129"/>
	<rect x="191.128" y="139.866" opacity="0.79" fill="#ED293B" enable-background="new" width="21.138" height="21.137"/>
	<rect x="212.271" y="139.866" opacity="0.79" fill="#ED293B" enable-background="new" width="21.129" height="21.127"/>
	<rect x="233.395" y="139.866" opacity="0.41" fill="#ED293B" enable-background="new" width="21.138" height="21.137"/>
</g>

<g>
	<rect x="169.971" y="0.927" opacity="0.54" fill="#ED293B" enable-background="new" width="21.139" height="21.137"/>
	<rect x="148.839" y="0.927" opacity="0.7" fill="#ED293B" enable-background="new" width="21.127" height="21.128"/>
	<rect x="127.705" y="43.238" opacity="0.74" fill="#ED293B" enable-background="new" width="21.136" height="21.138"/>
	<rect x="106.572" y="43.238" opacity="0.68" fill="#ED293B" enable-background="new" width="21.137" height="21.138"/>
	<rect x="85.44" y="0.927" opacity="0.72" fill="#ED293B" enable-background="new" width="21.128" height="21.128"/>
	<rect x="64.307" y="0.927" opacity="0.52" fill="#ED293B" enable-background="new" width="21.137" height="21.136"/>
	<rect x="191.105" y="22.109" opacity="0.56" fill="#ED293B" enable-background="new" width="21.137" height="21.137"/>
	<rect x="169.971" y="22.109" opacity="0.76" fill="#ED293B" enable-background="new" width="21.129" height="21.128"/>
	<rect x="148.839" y="22.109" opacity="0.84" fill="#ED293B" enable-background="new" width="21.137" height="21.137"/>
	<rect x="127.706" y="22.109" opacity="0.58" fill="#ED293B" enable-background="new" width="21.137" height="21.138"/>
	<rect x="106.572" y="22.109" opacity="0.5" fill="#ED293B" enable-background="new" width="21.128" height="21.128"/>
	<rect x="85.44" y="22.109" opacity="0.82" fill="#ED293B" enable-background="new" width="21.136" height="21.136"/>
	<rect x="64.307" y="22.117" opacity="0.66" fill="#ED293B" enable-background="new" width="21.128" height="21.128"/>
	<rect x="43.174" y="22.109" opacity="0.48" fill="#ED293B" enable-background="new" width="21.139" height="21.136"/>
	<rect x="212.237" y="43.243" opacity="0.44" fill="#ED293B" enable-background="new" width="21.138" height="21.137"/>
	<rect x="191.105" y="43.243" opacity="0.71" fill="#ED293B" enable-background="new" width="21.126" height="21.127"/>
	<rect x="169.983" y="43.23" opacity="0.88" fill="#ED293B" enable-background="new" width="21.14" height="21.137"/>
	<rect x="148.839" y="43.243" opacity="0.96" fill="#ED293B" enable-background="new" width="21.137" height="21.139"/>
	<rect x="85.423" y="43.26" opacity="0.94" fill="#ED293B" enable-background="new" width="21.127" height="21.127"/>
	<rect x="64.289" y="43.26" opacity="0.86" fill="#ED293B" enable-background="new" width="21.138" height="21.135"/>
	<rect x="43.157" y="43.268" opacity="0.86" fill="#ED293B" enable-background="new" width="21.128" height="21.127"/>
	<rect x="22.025" y="43.26" opacity="0.46" fill="#ED293B" enable-background="new" width="21.136" height="21.135"/>
	<rect x="233.395" y="64.377" opacity="0.42" fill="#ED293B" enable-background="new" width="21.138" height="21.136"/>
	<rect x="212.261" y="64.377" opacity="0.86" fill="#ED293B" enable-background="new" width="21.13" height="21.127"/>
	<rect x="191.128" y="64.377" opacity="0.92" fill="#ED293B" enable-background="new" width="21.138" height="21.136"/>
	<rect x="169.996" y="64.377" opacity="0.98" fill="#ED293B" enable-background="new" width="21.139" height="21.136"/>
	<rect x="64.289" y="64.392" fill="#ED293B" width="21.129" height="21.128"/>
	<rect x="43.157" y="64.392" opacity="0.9" fill="#ED293B" enable-background="new" width="21.138" height="21.136"/>
	<rect x="22.025" y="64.399" opacity="0.84" fill="#ED293B" enable-background="new" width="21.126" height="21.129"/>
	<rect x="0.892" y="64.392" opacity="0.4" fill="#ED293B" enable-background="new" width="21.137" height="21.136"/>
</g>

</svg>
